HIERARCHY
ROOT Hips
{
	OFFSET -0.001795 -0.223333 0.028219
	CHANNELS 6 Xposition Yposition Zposition Zrotation Yrotation Xrotation 
	JOINT LeftUpLeg
	{
		OFFSET 0.069520 -0.091406 -0.006815
		CHANNELS 3 Zrotation Yrotation Xrotation
		JOINT LeftLeg
		{
			OFFSET 0.034277 -0.375199 -0.004496
			CHANNELS 3 Zrotation Yrotation Xrotation
			JOINT LeftFoot
			{
				OFFSET -0.013596 -0.397961 -0.043693
				CHANNELS 3 Zrotation Yrotation Xrotation
				JOINT LeftToe
				{
					OFFSET 0.026358 -0.055791 0.119288
					CHANNELS 3 Zrotation Yrotation Xrotation
					End Site
					{
						OFFSET 0.000000 0.000000 0.000000
					}
				}
			}
		}
	}
	JOINT RightUpLeg
	{
		OFFSET -0.067670 -0.090522 -0.004320
		CHANNELS 3 Zrotation Yrotation Xrotation
		JOINT RightLeg
		{
			OFFSET -0.038290 -0.382569 -0.008850
			CHANNELS 3 Zrotation Yrotation Xrotation
			JOINT RightFoot
			{
				OFFSET 0.015774 -0.398415 -0.042312
				CHANNELS 3 Zrotation Yrotation Xrotation
				JOINT RightToe
				{
					OFFSET -0.025372 -0.048144 0.123348
					CHANNELS 3 Zrotation Yrotation Xrotation
					End Site
					{
						OFFSET 0.000000 0.000000 0.000000
					}
				}
			}
		}
	}
	JOINT Spine
	{
		OFFSET -0.002533 0.108963 -0.026696
		CHANNELS 3 Zrotation Yrotation Xrotation
		JOINT Spine1
		{
			OFFSET 0.005487 0.135180 0.001092
			CHANNELS 3 Zrotation Yrotation Xrotation
			JOINT Spine2
			{
				OFFSET 0.001457 0.052922 0.025425
				CHANNELS 3 Zrotation Yrotation Xrotation
				JOINT Neck
				{
					OFFSET -0.002778 0.213870 -0.042857
					CHANNELS 3 Zrotation Yrotation Xrotation
					JOINT Head
					{
						OFFSET 0.005152 0.064970 0.051349
						CHANNELS 3 Zrotation Yrotation Xrotation
						End Site
						{
							OFFSET 0.000000 0.000000 0.000000
						}
					}
				}
				JOINT LeftShoulder
				{
					OFFSET 0.078845 0.121749 -0.034090
					CHANNELS 3 Zrotation Yrotation Xrotation
					JOINT LeftArm
					{
						OFFSET 0.090977 0.030469 -0.008868
						CHANNELS 3 Zrotation Yrotation Xrotation
						JOINT LeftForeArm
						{
							OFFSET 0.259612 -0.012772 -0.027456
							CHANNELS 3 Zrotation Yrotation Xrotation
							JOINT LeftHand
							{
								OFFSET 0.249234 0.008986 -0.001171
								CHANNELS 3 Zrotation Yrotation Xrotation
								End Site
								{
									OFFSET 0.000000 0.000000 0.000000
								}
							}
						}
					}
				}
				JOINT RightShoulder
				{
					OFFSET -0.081759 0.118833 -0.038615
					CHANNELS 3 Zrotation Yrotation Xrotation
					JOINT RightArm
					{
						OFFSET -0.096012 0.032551 -0.009143
						CHANNELS 3 Zrotation Yrotation Xrotation
						JOINT RightForeArm
						{
							OFFSET -0.253742 -0.013329 -0.021401
							CHANNELS 3 Zrotation Yrotation Xrotation
							JOINT RightHand
							{
								OFFSET -0.255298 0.007772 -0.005559
								CHANNELS 3 Zrotation Yrotation Xrotation
								End Site
								{
									OFFSET 0.000000 0.000000 0.000000
								}
							}
						}
					}
				}
			}
		}
	}
}
MOTION
Frames: 16
Frame Time: 0.050000
-0.006000 0.950744 -0.053061 -3.443907 8.145016 1.569649 6.827835 -0.261298 -0.527598 3.072717 0.012176 -5.265966 0.799565 7.265176 13.096395 0.000000 0.000000 0.000000 -3.409381 0.352598 -4.418283 -1.372532 0.204736 0.835603 -0.453195 -6.128251 18.551806 0.000000 0.000000 0.000000 -0.566972 0.099580 -3.003005 -1.346990 0.533791 2.222389 5.704841 -2.504635 -0.479935 -0.691153 0.879749 -4.832779 0.000000 0.000000 0.000000 -15.040608 -1.089960 -1.049143 -54.608401 -19.475039 2.893998 -154.384038 -57.986289 141.911435 0.000000 0.000000 0.000000 11.290782 9.083449 3.079475 46.056697 25.554930 5.535133 136.492777 60.863238 115.468889 0.000000 0.000000 0.000000 
-0.005918 0.950749 -0.054240 -3.519417 7.904382 1.858283 6.929987 -0.274665 -0.875813 2.994470 0.015467 -5.255843 0.934539 7.465846 13.165288 0.000000 0.000000 0.000000 -3.555325 0.381623 -4.849564 -1.019198 0.158139 0.808605 -0.325446 -5.976658 18.642503 0.000000 0.000000 0.000000 -0.569768 0.101094 -3.017668 -1.293063 0.490044 2.605383 6.138720 -2.609431 -0.857299 -0.674367 0.826515 -4.402221 0.000000 0.000000 0.000000 -15.221523 -0.908385 -1.091870 -53.677203 -18.603907 2.449245 -154.894237 -57.899055 142.930711 0.000000 0.000000 0.000000 11.586497 8.418406 2.695557 45.852523 24.448007 5.108367 135.076785 58.937605 110.983844 0.000000 0.000000 0.000000 
-0.005631 0.950483 -0.055686 -3.458789 7.579944 1.998004 6.896097 -0.274070 -1.022202 2.858674 0.022823 -5.271951 1.107528 7.697505 13.178821 0.000000 0.000000 0.000000 -3.816967 0.397926 -5.188579 -0.756686 0.128061 0.894105 -0.172377 -5.772032 18.601557 0.000000 0.000000 0.000000 -0.657672 0.096378 -2.859826 -1.345902 0.517117 2.666299 6.615044 -2.767620 -0.722657 -1.031803 1.072681 -4.413653 0.000000 0.000000 0.000000 -15.721216 -0.351627 -1.325344 -53.062939 -17.873996 2.048306 -155.055116 -57.908078 143.559888 0.000000 0.000000 0.000000 12.178544 8.017881 2.423730 45.168001 23.550055 4.655616 133.567697 57.663988 107.066333 0.000000 0.000000 0.000000 
-0.005215 0.950407 -0.057185 -3.404285 7.440718 2.127968 6.711957 -0.267971 -1.029425 2.999067 0.032994 -5.605479 1.152885 7.794498 13.316569 0.000000 0.000000 0.000000 -3.885528 0.425437 -5.628934 -0.822132 0.150230 1.228740 -0.123783 -5.712868 18.594433 0.000000 0.000000 0.000000 -0.883826 0.091609 -2.759446 -1.158330 0.424177 2.665575 6.890583 -2.704495 -0.500752 -1.049088 1.077146 -4.310044 0.000000 0.000000 0.000000 -16.072946 -0.098487 -1.466944 -52.527635 -17.237759 1.699863 -155.120006 -57.850036 143.716501 0.000000 0.000000 0.000000 12.655797 7.532191 2.175511 44.474268 22.476951 4.141836 132.296366 56.695875 104.115298 0.000000 0.000000 0.000000 
-0.004633 0.949816 -0.058553 -3.347062 6.972896 2.117338 6.676359 -0.258351 -0.984622 2.831255 0.039965 -5.596724 1.417712 8.112045 13.209745 0.000000 0.000000 0.000000 -3.971376 0.441987 -5.889860 -0.899288 0.168780 1.437691 0.075951 -5.422080 18.416890 0.000000 0.000000 0.000000 -0.789625 0.086614 -2.518124 -1.281745 0.486241 2.784222 7.148395 -2.624024 -0.515027 -1.159027 1.145835 -4.241564 0.000000 0.000000 0.000000 -16.540644 0.610422 -1.824251 -52.220180 -16.231982 1.228729 -154.302918 -57.233674 142.046153 0.000000 0.000000 0.000000 13.177583 7.073596 1.893389 43.749973 21.366486 3.660442 130.465151 55.685672 100.155331 0.000000 0.000000 0.000000 
-0.004020 0.949398 -0.059771 -3.213092 6.428320 2.310021 6.378807 -0.242547 -0.937704 2.969685 0.049462 -5.924612 1.686116 8.491074 13.314586 0.000000 0.000000 0.000000 -4.098357 0.466849 -6.271199 -1.057243 0.190300 1.471236 0.315890 -5.090013 18.308805 0.000000 0.000000 0.000000 -0.903030 0.086508 -2.495481 -1.515226 0.598982 3.060960 7.427401 -2.230172 -0.849965 -1.153072 1.136197 -4.148485 0.000000 0.000000 0.000000 -16.979103 0.950708 -2.054691 -51.741830 -15.351953 0.854017 -153.040319 -57.006259 139.666637 0.000000 0.000000 0.000000 13.883471 6.748676 1.696835 42.992993 20.304996 3.239044 128.695788 55.164527 97.063455 0.000000 0.000000 0.000000 
-0.003317 0.948954 -0.060868 -3.201376 6.034843 2.312284 6.215493 -0.225219 -0.715321 3.112327 0.060741 -6.272790 1.882918 8.755490 13.344850 0.000000 0.000000 0.000000 -3.943504 0.482024 -6.348625 -1.471271 0.238338 1.369012 0.494361 -4.839789 18.236929 0.000000 0.000000 0.000000 -0.914501 0.082913 -2.344388 -1.484510 0.588426 3.070614 7.546011 -1.987105 -1.016698 -1.015900 1.021473 -3.886059 0.000000 0.000000 0.000000 -17.576105 1.535605 -2.428357 -51.354204 -14.271821 0.385989 -151.318612 -56.502366 136.311474 0.000000 0.000000 0.000000 14.435154 6.492996 1.541651 42.417033 19.603373 2.956518 126.410769 54.936902 93.749592 0.000000 0.000000 0.000000 
-0.002710 0.948563 -0.061954 -3.079717 5.519648 2.470794 5.887209 -0.207599 -0.633290 3.333882 0.068583 -6.608026 2.132686 9.111366 13.466679 0.000000 0.000000 0.000000 -4.088087 0.500497 -6.645406 -1.565484 0.247339 1.330680 0.729097 -4.514923 18.151609 0.000000 0.000000 0.000000 -0.856726 0.087855 -2.453384 -1.732407 0.711541 3.352387 7.662516 -1.388466 -1.417488 -0.902578 0.920430 -3.459691 0.000000 0.000000 0.000000 -17.665532 1.595888 -2.539966 -51.240477 -13.528099 0.115973 -150.116173 -56.400685 133.946778 0.000000 0.000000 0.000000 14.695923 6.101988 1.377795 42.141772 18.967014 2.743025 124.996976 54.918146 92.051450 0.000000 0.000000 0.000000 
-0.002439 0.948366 -0.063131 -3.084151 5.452544 2.482815 5.753401 -0.200954 -0.575058 3.532543 0.073422 -6.842973 2.155645 9.154365 13.522379 0.000000 0.000000 0.000000 -3.941333 0.506007 -6.617015 -1.867875 0.273372 1.103960 0.767251 -4.471017 18.191436 0.000000 0.000000 0.000000 -0.927879 0.087997 -2.467845 -1.713030 0.702958 3.338957 7.694351 -1.218189 -1.508259 -0.794309 0.835569 -3.329230 0.000000 0.000000 0.000000 -17.841741 1.758312 -2.674635 -50.958791 -13.396249 0.067659 -149.980140 -57.117758 134.244576 0.000000 0.000000 0.000000 15.010467 6.219558 1.443111 41.675726 18.980374 2.708418 124.568337 56.249368 93.291438 0.000000 0.000000 0.000000 
-0.002701 0.948498 -0.064477 -3.051487 5.466895 2.322846 5.705991 -0.193933 -0.481420 3.568285 0.072762 -6.861353 2.117565 9.120224 13.602012 0.000000 0.000000 0.000000 -3.970964 0.503897 -6.636970 -1.858755 0.282856 1.302373 0.768636 -4.474488 18.215071 0.000000 0.000000 0.000000 -1.060084 0.079113 -2.200092 -1.754651 0.732977 3.085526 7.586189 -0.745832 -1.313317 -0.679877 0.770333 -3.440156 0.000000 0.000000 0.000000 -17.936083 1.458547 -2.640498 -50.586072 -13.829786 0.245649 -149.759803 -58.124619 134.409623 0.000000 0.000000 0.000000 15.465582 6.338995 1.599182 41.198217 18.949803 2.611788 124.699984 57.975923 96.003567 0.000000 0.000000 0.000000 
-0.003563 0.948754 -0.065935 -3.174604 5.751002 2.194180 5.824095 -0.200598 -0.507687 3.706390 0.068805 -6.887474 1.944084 8.915676 13.693009 0.000000 0.000000 0.000000 -3.889869 0.485990 -6.350562 -1.669222 0.240960 0.931091 0.676084 -4.630832 18.412954 0.000000 0.000000 0.000000 -1.197247 0.073772 -2.056430 -1.653964 0.669401 3.337104 7.705985 -0.650786 -1.671827 -0.859478 0.916530 -3.600368 0.000000 0.000000 0.000000 -18.232559 1.130156 -2.555452 -50.064907 -14.638447 0.614479 -150.720636 -60.330223 137.581183 0.000000 0.000000 0.000000 15.720639 6.505911 1.700079 41.075632 19.146176 2.686509 125.643738 59.838820 99.538592 0.000000 0.000000 0.000000 
-0.004745 0.948877 -0.067319 -3.243379 5.801807 2.221289 6.041281 -0.215015 -0.700083 3.583248 0.069522 -6.808677 1.904636 8.885113 13.779741 0.000000 0.000000 0.000000 -3.756401 0.493746 -6.382136 -1.652676 0.230442 0.762418 0.664309 -4.664434 18.502192 0.000000 0.000000 0.000000 -1.256053 0.073487 -2.050148 -1.838549 0.763065 3.324688 7.725871 -0.288893 -1.677640 -0.775235 0.851849 -3.428338 0.000000 0.000000 0.000000 -18.338382 0.753360 -2.458813 -49.539713 -15.362765 0.920243 -151.019758 -61.645282 138.810219 0.000000 0.000000 0.000000 16.060706 6.623324 1.832175 40.955768 19.517601 2.778966 126.927956 61.996819 103.969666 0.000000 0.000000 0.000000 
-0.006044 0.949219 -0.068623 -3.287510 5.916102 2.131308 6.067310 -0.222378 -0.884526 3.767193 0.045249 -6.532848 1.823605 8.804610 13.874240 0.000000 0.000000 0.000000 -3.702959 0.482100 -6.191236 -1.521798 0.199635 0.457004 0.645045 -4.716148 18.655548 0.000000 0.000000 0.000000 -1.299164 0.068965 -1.900010 -2.031178 0.857516 3.391755 7.786832 -0.029632 -1.714298 -0.738068 0.812900 -3.175201 0.000000 0.000000 0.000000 -18.486743 0.129718 -2.220697 -49.108311 -16.284136 1.303774 -152.232178 -63.357379 141.718715 0.000000 0.000000 0.000000 16.295741 6.740706 1.950367 41.233084 20.197751 3.021139 128.690822 63.784061 108.437433 0.000000 0.000000 0.000000 
-0.007215 0.949581 -0.069942 -3.446311 6.128033 2.016154 6.196861 -0.239295 -1.234622 3.982800 0.001550 -5.978789 1.722696 8.672752 13.849602 0.000000 0.000000 0.000000 -3.446315 0.475906 -5.971325 -1.539511 0.187164 0.154770 0.582280 -4.833522 18.857948 0.000000 0.000000 0.000000 -1.372514 0.062684 -1.682938 -2.033168 0.853539 3.462531 7.661784 0.044990 -1.776652 -0.821939 0.834730 -2.565513 0.000000 0.000000 0.000000 -18.301769 -0.084106 -2.136033 -48.997106 -16.923923 1.577937 -153.384846 -63.587179 143.482189 0.000000 0.000000 0.000000 16.722195 7.083248 2.165501 41.325179 20.587680 3.153117 132.120914 64.952099 114.287602 0.000000 0.000000 0.000000 
-0.008235 0.949570 -0.071192 -3.603541 6.690181 2.082726 6.395167 -0.274198 -1.886233 4.079395 -0.038459 -5.390213 1.481138 8.325996 13.680343 0.000000 0.000000 0.000000 -3.235927 0.489473 -6.088122 -1.496808 0.186290 0.210843 0.300580 -5.221141 18.947478 0.000000 0.000000 0.000000 -1.397847 0.057240 -1.475321 -1.941586 0.786398 3.762919 7.509493 -0.085620 -2.236556 -0.782019 0.817986 -2.723323 0.000000 0.000000 0.000000 -18.103927 -0.318867 -2.034895 -48.916883 -17.710082 1.948131 -154.804132 -63.137112 145.212312 0.000000 0.000000 0.000000 17.109987 6.784264 2.020894 41.436955 20.955936 3.320520 136.890735 64.926182 120.679262 0.000000 0.000000 0.000000 
-0.008948 0.949674 -0.072162 -3.808073 7.627864 2.130775 6.634807 -0.300702 -2.101276 4.173887 -0.020669 -5.694046 0.985744 7.695690 13.717065 0.000000 0.000000 0.000000 -2.939643 0.499842 -6.133202 -1.536499 0.197778 0.301157 -0.162539 -5.856011 19.122237 0.000000 0.000000 0.000000 -1.618025 0.052807 -1.318145 -1.335544 0.470215 3.516853 7.108897 -0.348370 -2.019393 -0.860477 0.869391 -2.533770 0.000000 0.000000 0.000000 -17.948966 -0.133756 -2.180575 -49.016399 -18.500232 2.272111 -155.155720 -61.678663 144.626206 0.000000 0.000000 0.000000 17.412905 6.186610 1.790160 41.468630 20.550520 3.141481 142.393132 62.890960 126.704846 0.000000 0.000000 0.000000 
